<?xml version="1.0" encoding="utf-8"?>
<!-- Generator: Adobe Illustrator 24.3.0, SVG Export Plug-In . SVG Version: 6.00 Build 0)  -->
<svg version="1.1" id="Livello_1" xmlns="http://www.w3.org/2000/svg" xmlns:xlink="http://www.w3.org/1999/xlink" x="0px" y="0px"
	 viewBox="0 0 165.8 22.64" style="enable-background:new 0 0 165.8 22.64;" xml:space="preserve">
<style type="text/css">
	.Arco_x0020_verde{fill:url(#SVGID_1_);stroke:#FFFFFF;stroke-width:0.25;stroke-miterlimit:1;}
	.st0{fill:#016734;}
	.st1{fill:#D2121D;}
</style>
<linearGradient id="SVGID_1_" gradientUnits="userSpaceOnUse" x1="-359.3781" y1="308.0399" x2="-358.671" y2="307.3328">
	<stop  offset="0" style="stop-color:#1DA238"/>
	<stop  offset="0.9831" style="stop-color:#24391D"/>
</linearGradient>
<g>
	<path class="st0" d="M22.68,4.77h-9.96h-1.65c-0.33,0-0.66,0.06-0.97,0.19c-0.77,0.33-1.32,1-1.55,1.77L8.54,6.79
		c7.61,2.61,9.85,8.6,9.86,10.4c0,0.03,0,0.08,0,0.12c-0.01,0.73-0.51,1.61-1.32,2.05h2.62c0.33,0,0.66-0.06,0.97-0.19
		c0.77-0.34,1.32-1,1.55-1.77l2.59-9.64c0.05-0.2,0.08-0.4,0.09-0.62C24.91,5.83,23.93,4.77,22.68,4.77"/>
	<path class="st1" d="M17.1,16.59c0.02-2.08-2.49-4.28-3.74-5.42c-0.23-0.18-0.43-0.34-0.58-0.45c-0.27,0.31-2.04,0.71-5.29,0.01
		l-0.01,0.04l-1.59,5.91c0,0.01-0.01,0.01-0.01,0.01C9.33,18.76,17.07,19.92,17.1,16.59z"/>
	<path class="st0" d="M138.07,4.78h-19.65h-3.03h-2.47c-5.3,0.06-8.58,2.51-9.88,7.31c-1.3,4.82,0.7,7.23,6,7.26h2.47
		c5.39-0.01,8.72-2.43,10.03-7.28c0.48-1.76,0.31-3.5-0.1-4.62l16.52,0.01c0.78,0,1.26,0.36,0.86,1.8c-0.38,1.37-0.9,1.51-1.68,1.51
		h-12.62l-0.67,2.62l10.26,5.97h4.64l0.17-0.65l-9.17-5.3l6.75,0c3.21,0,4.05-0.72,4.85-3.61l0.3-1.19
		C142.32,6.08,140.83,4.78,138.07,4.78z M118.25,12.07c-0.78,2.9-2.44,4.65-5.94,4.65c-0.03,0-2.42,0-2.45-0.01
		c-3.44-0.02-4.3-1.77-3.53-4.64c0.77-2.87,2.41-4.61,5.89-4.62h2.43C118.14,7.44,119.02,9.18,118.25,12.07z"/>
	<polygon class="st0" points="62.74,19.34 79.26,19.34 79.99,16.71 63.43,16.71 	"/>
	<path class="st0" d="M59.37,4.78H28.25l-0.7,2.66h9.92l-3.19,11.9h3.3l3.18-11.9l18.5,0.01c0.78,0,1.28,0.36,0.87,1.8
		c-0.38,1.37-0.94,1.51-1.72,1.51H45.84l-0.67,2.62l10.26,5.97h4.65l0.17-0.65l-9.17-5.3l6.71,0c3.2,0,4.05-0.72,4.85-3.61
		l0.32-1.19C63.63,6.08,62.14,4.78,59.37,4.78z"/>
	<polygon class="st0" points="64.32,13.38 80.87,13.38 81.58,10.74 65.04,10.74 	"/>
	<path class="st0" d="M95.05,4.78H66.66l-0.73,2.64h19.21l-3.21,11.93h3.29l3.21-11.93h5.27c3.3,0,4.28,1.34,3.5,4.35l-2.03,7.58
		h3.28l2.01-7.54C101.48,8.09,99.09,4.78,95.05,4.78z"/>
	<path class="st0" d="M158.66,16.7h-13.21l2.49-9.27c2.01,0,3.79,0.38,5.41,1.04c2.29,0.93,3.73,2.37,4.58,3.9
		C159.02,14.33,158.68,16.51,158.66,16.7 M154.31,6.15c-2.36-0.94-5.03-1.36-7.35-1.36h-1.63l-3.91,14.54h19.85
		c0,0,0.6-1.94,0.57-3.75c-0.03-1.67-0.51-3.31-1.54-4.84C158.95,8.75,156.92,7.2,154.31,6.15z"/>
</g>
</svg>
